<svg version="1.1" xmlns="http://www.w3.org/2000/svg" xmlns:xlink="http://www.w3.org/1999/xlink" width="750.0143" height="303.83888" viewBox="0,0,750.0143,303.83888"><g transform="translate(130.00715,-36.9)"><g data-paper-data="{&quot;isPaintingLayer&quot;:true}" fill-rule="nonzero" stroke-linejoin="miter" stroke-miterlimit="10" stroke-dasharray="" stroke-dashoffset="0" style="mix-blend-mode: normal"><path d="M552.88174,310.3c-9.1,1.1 -14.8,1.1 -17,2.3c-4.5,2.3 -14.8,4.5 -27.2,4.5c-15.9,0 -30.7,-5.7 -43.2,-14.8h-9.1c-3.1,0.2 -6.2,-0.2 -9.1,-1.1c-12.5,4.5 -23.8,4.5 -30.7,4.5h-2.3c-15.7,1.1 -31.3,-2.1 -45.4,-9.1c-6.2,2.2 -12.7,3.4 -19.3,3.4l-42,1.1c-18.5,0.2 -36.4,-6.7 -50,-19.3c-5.4,-0.1 -10.7,-0.9 -15.9,-2.3c-6.8,7.9 -15.9,14.8 -27.2,20.4c-21.6,10.2 -45.4,11.4 -68.1,2.3c-2.3,-1.1 -5.7,-2.3 -8,-3.4l-26.1,3.4h-7.9c-3.4,1.1 -5.7,3.4 -8,4.5c-17,8 -32.9,8 -39.7,8h-5.7c-19.3,0 -38.6,-5.7 -53.4,-15.9c-4.8,1.3 -9.8,2.1 -14.8,2.3c-10.9,7.2 -23.4,11.5 -36.3,12.5h-4.5c-37.4,0 -68.1,-28.4 -71.5,-65.9v-1.1c0,-5.7 -1.1,-18.2 0,-31.8c0,-6.8 1.1,-17 1.1,-19.3c0,-9.1 2.3,-18.2 5.7,-27.2c-2.3,-9.1 -1.1,-18.2 0,-27.2v-3.4c1.1,-8 3.4,-23.9 11.3,-39.7c14.8,-27.2 42,-44.3 72.7,-44.3c9.7,-5.4 20.7,-8.2 31.8,-7.9h3.4c22.3,1 42.9,12.3 55.6,30.7c10.3,-9 22.9,-14.9 36.3,-17c27.2,-3.4 50,-4.5 69.3,-1.1c10.2,-9.1 23.9,-15.9 37.5,-17l29.5,-4.5h9.1c17,0 34.1,6.8 47.7,18.2h2.3l43.1,-1.1c18.2,0 34.1,-1.1 37.5,-1.1h5.7c15.9,0 32.9,5.7 45.4,15.9c12.5,-9.1 27.2,-13.6 43.2,-13.6h14.8c11.3,-6.8 23.8,-11.4 37.5,-11.4l36.3,-1.1h1.1c38.6,0 70.4,31.8 71.5,70.4c0,18.2 -5.7,34.1 -17,47.7v32.9c10.2,11.4 15.9,26.1 17,42c2.3,38.3 -27.3,71.2 -67,74.6z" fill="#ffffff" stroke="none" stroke-width="1" stroke-linecap="butt"/><path d="M545.6,272.55c-14.8,1.1 -23.8,2.3 -26.1,3.4l-1.1,1.1c-3.4,1.1 -8,3.4 -13.6,3.4c-6.8,0 -14.8,-2.3 -20.4,-7.9c-2.3,-2.3 -4.5,-4.5 -5.7,-6.8h-26.1c-4.4,0.1 -8.7,-1.1 -12.5,-3.4c-1.1,1.1 -3.4,1.1 -4.5,2.3c-9.1,4.5 -17,4.5 -22.7,4.5h-5.7c-17,0 -30.7,-5.7 -39.7,-15.9c-5.7,5.7 -13.5,9 -21.6,9.1l-42,1.1c-14.8,0 -28.4,-11.4 -30.6,-25c-5.7,3.4 -11.4,5.7 -18.2,5.7c-6.8,-0.1 -13.5,-2.1 -19.3,-5.7c-1.1,-1.1 -2.3,-2.3 -3.4,-2.3c-3.4,2.3 -7.9,2.3 -12.5,2.3h-3.4c-4.5,13.6 -12.5,22.7 -25,28.4c-5.7,2.3 -12.5,4.5 -18.2,4.5c-6.2,0 -12.4,-1.2 -18.2,-3.4c-5.1,-2.1 -9.7,-5.2 -13.6,-9.1c-2.3,1.1 -4.5,1.1 -6.8,2.3l-32.9,4.5h-4.5c-3.4,0 -5.7,0 -9.1,-1.1c-4.5,4.5 -10.2,6.8 -14.8,9.1c-9.1,4.5 -17,4.5 -22.7,4.5h-5.7c-20.4,0 -36.3,-9.1 -45.4,-21.6c-9.2,5.7 -19.8,8.9 -30.7,9.1h-6.9c0,1.1 -1.1,1.1 -1.1,2.3c-5.7,5.7 -46.4,-7.3 -47.6,-24.3c0,0 -8.1,-12 -7,-23.3c0,-8 1.1,-20.4 1.1,-20.4c0,-8 3.4,-14.8 8,-20.4c-4.5,-9.1 -26.7,-26.3 -24.4,-37.6l7,-14.3c0.41754,-2.58114 3.35592,-5.87467 6.32997,-7.15687c1.96667,-0.84789 5.38623,-0.25354 8.11836,-0.00767c4.02093,0.36185 4.68931,2.73255 6.35167,-1.03545c3.90976,-7.23305 26.59599,2.80611 49.79458,2.63106c24.26956,-0.18313 49.00542,-10.22284 49.00542,-1.53106v12.5c6.2,-2.3 12.7,-3.5 19.3,-3.4c3.4,0 5.7,0 9.1,1.1c4.6,-5.5 11.1,-9.1 18.2,-10.2c1.1,-2.3 2.3,-3.4 3.4,-5.7c4.5,-6.8 12.5,-11.4 20.4,-12.5c6.8,-1.1 20.4,-2.3 36.3,-2.3c18.2,0 32.9,2.3 44.3,8c3.4,-12.5 12.5,-21.6 26.1,-23.8l29.5,-4.5h4.5c9.1,0 17,3.4 22.7,10.2c2.3,2.3 5.7,6.8 6.8,10.2l1.1,3.4c5.7,-3.4 11.4,-5.7 18.2,-5.7l44.3,-1.1c21.6,0 40.9,-1.1 40.9,-2.3h2.3c7.9,0 17,3.4 22.7,9.1c4.7,4.6 7.9,10.5 9.1,17h2.3c3.4,0 5.7,0 9.1,1.1c4.6,-5.5 11.1,-9.1 18.2,-10.2c5.7,-8 15.9,-14.8 27.2,-14.8h29.5c5.8,-7.2 14.5,-11.4 23.8,-11.3h36.3c17,0 30.7,13.6 31.8,30.7c0,12.5 -6.8,23.8 -17,28.4v69.3c9.1,4.5 15.9,14.8 17,26.1c1.3,16.8 -12.3,31.5 -29.4,32.7z" fill="#ffd900" stroke="none" stroke-width="1" stroke-linecap="butt"/><path d="M245.8,173.75l-22.7,3.4l8,-40.9z" fill="#f9a83a" stroke="none" stroke-width="1" stroke-linecap="butt"/><path d="M-40.3,175.95c13.7,2.3 42,6.9 42.2,35.3c0,7.9 -4.6,17 -11.4,22.7c-8,6.9 -18.2,10.3 -28.4,8c-7,-1.1 -13.6,-3.8 -19.3,-8v12.5c-0.2,3.6 -3.1,6.6 -6.8,6.8c-3.6,-0.2 -6.6,-3.1 -6.8,-6.8c-0.7,-8.3 -0.7,-16.7 0,-25c1.1,-8 1.1,-21.6 1.1,-21.6c0.2,-3.6 3.1,-6.6 6.8,-6.8c3.7,0.2 6.7,3.1 6.9,6.8v2.3c0,3.4 1.2,9.1 2.3,13.6c2.2,4.6 9,8 11.3,9.1c2.3,0 3.4,1.1 5.7,1.1c6.8,1.1 13.6,0 18.2,-4.6c4.5,-3.4 6.8,-8 6.8,-12.5c0,-11.4 -12.5,-14.8 -30.7,-18.2c-17.1,-3.4 -23.9,-17 -21.6,-38.6v-2.3c1.2,-11.3 3.4,-30.6 25,-27.2c7.9,0 14.7,5.7 20.4,11.4v-12.5c0,-3.8 3,-6.8 6.8,-6.8c3.8,0 6.8,3 6.8,6.8c0,1.2 -2.3,44.3 -2.3,44.3c-1.2,3.4 -4.6,6.9 -8,5.7c-3.4,-1.2 -5.7,-3.4 -5.7,-5.7v-4.5c-1.1,-3.4 -1.1,-6.9 -3.4,-11.4c-2.3,-6.8 -6.9,-10.2 -9.1,-12.5c-2.2,-2.3 -4.5,-3.4 -6.8,-3.4c-6.8,0 -7.9,3.4 -10.2,17v2.3c-2.3,15.9 2.3,21.6 10.2,22.7M150.5,156.65c3.4,-4.5 5.7,-9 5.7,-11.4v-2.3c-3.4,-5.7 -19.3,-6.8 -37.5,-6.8v31.8c6.8,-1.1 13.7,-2.2 18.2,-4.5l3.4,-1.1c2.1,-0.3 4,-1.1 5.7,-2.3c1.7,-0.8 3.2,-2 4.5,-3.4M190.2,217.95c3.4,1.2 5.6,4.6 0.9,6.9c-2.3,10.2 -6.8,13.6 -12.5,17c-6.8,3.4 -12.5,1.1 -17,0c-5.7,-2.2 -9.1,-7.9 -10.2,-10.2c-2.3,-5.7 -3.4,-19.3 -3.4,-22.7c-1.2,-17 -3.4,-23.8 -5.7,-27.2c-1.1,-2.1 -3.3,-3.4 -5.7,-3.4h-2.3c-5.7,2.2 -11.4,3.4 -18.2,4.5v39.8l10.2,-1.1c3.5,-1.1 8,2.3 8,5.7c1.1,3.5 -2.3,8 -5.7,8l-32.9,4.5c-3.4,1.1 -7.9,-2.3 -7.9,-5.7c-1.1,-3.5 2.3,-8 5.7,-8l9.1,-1.2v-39.7h-3.4c-3.6,-0.2 -6.5,-3 -6.6,-6.6c-0.1,-3.8 2.8,-7 6.6,-7.1h3.5v-31.8c-3.4,0 -6.8,1.1 -10.2,1.1c-3.5,1.1 -8,-2.3 -8,-5.7c-1.1,-3.5 2.3,-8 5.7,-8c15.9,-2.2 64.7,-7.9 76.1,11.4c4.5,8 2.3,17 -5.7,28.4c-2.1,2.1 -4.4,4 -6.8,5.7c5.7,5.7 10.2,17.1 10.2,37.5c0,5.6 1.2,14.7 2.3,17c0.9,1 1.7,2.2 2.3,3.4c3.4,1.1 5.6,2.2 6.8,1.1c1.2,-1.1 3.4,-1.1 5.7,-9.1c1.5,-3.5 5.4,-5.5 9.1,-4.5M437.9,196.25c3.4,0 6.8,2.2 6.8,4.5v11.4c-1.1,2.3 -2.2,10.3 -4.5,14.8c-2.3,3.5 -3.4,5.7 -5.7,8c-2.8,3 -6.3,5.3 -10.2,6.8c-4.5,2.3 -9.1,2.3 -13.6,2.3h-3.4c-25,0 -33,-20.5 -34.1,-30.7v-31.8c1.2,-17 6.9,-27.2 14.8,-32.9c10.2,-6.9 23.8,-1.2 27.2,1.1c3.4,2.3 6.8,3.4 9.1,5.7v-12.5v0c0,-3.8 3,-6.8 6.8,-6.8c3.8,0 6.8,3 6.8,6.8v30.7c0,3.4 -1.1,5.7 -4.5,6.8c-3.5,0 -6.9,-1.1 -8,-3.4c-1.1,0 -6.8,-10.2 -15.9,-13.6c-7.9,-2.2 -12.5,-3.4 -15.9,-1.1c-4.6,3.4 -6.9,11.3 -8,22.7v29.6c0,3.4 2.2,18.1 20.4,17h4.4c4.6,0 5.7,0 8,-1.1c2.3,-1.1 4.6,-2.3 5.7,-3.4c2.2,-2.3 3.4,-3.4 4.5,-5.7c1.2,-1.1 2.3,-5.7 2.3,-9.1v-9.1c0.2,-3.6 3.1,-6.5 6.8,-6.8M550.3,241.65c0,3.4 -2.3,6.8 -5.7,9.1c-15.9,1.1 -29.5,2.2 -32.9,4.5c-4.5,1.1 -7.9,2.3 -10.2,0c-0.3,-0.2 -0.6,-0.4 -0.8,-0.6c-2.5,-2.3 -2.6,-6.1 -0.4,-8.5c3.4,-4.5 10.2,-4.5 19.3,-6.8v-52.2l-40.9,6.8v35.2h11.4c3.6,0.2 6.5,3 6.6,6.6c0.1,3.8 -2.8,7 -6.6,7.1l-37.5,-1.1v0c-3.8,0 -6.8,-3 -6.8,-6.8c0,-3.8 3,-6.8 6.8,-6.8h11.4v-92h-11.4c-3.6,-0.2 -6.5,-3 -6.6,-6.6c-0.1,-3.8 2.8,-7 6.6,-7.1h36.3c3.6,0.2 6.5,3 6.6,6.6c0.1,3.8 -2.8,7 -6.6,7.1h-11.4v43.1l40.9,-6.8v-47.7h-11.4v0c-3.8,0 -6.8,-3 -6.8,-6.8c0,-3.8 3,-6.8 6.8,-6.8l36.5,-1.1c3.6,0.2 6.5,3 6.6,6.6c0.1,3.8 -2.8,7 -6.6,7.1h-10.2c1.1,77.2 1.1,101 1.1,112.4c3,-0.8 6,-1.2 9.1,-1.1c3.6,0.2 6.6,3.1 6.8,6.8" fill="#ffffff" stroke="none" stroke-width="1" stroke-linecap="butt"/><path d="M246,173.75l-14.8,-37.5l-8,40.9zM283.3,188.45c3.4,-1.1 6.9,1.1 7.8,3.3c1,3.7 -0.9,7.6 -4.5,9.1c-12.5,4.6 -25,10.3 -28.4,14.8c-2.7,2.6 -6.9,3.1 -10.2,1.1c-2.2,-2.3 -3.4,-5.7 -1.1,-9.1c3.4,-3.5 5.7,-4.6 11.4,-8l-6.8,-17l-31.8,5.7l-1.1,10.2c3.6,0.2 6.5,3 6.6,6.6c0.1,3.8 -2.8,7 -6.6,7.1l-34.1,-1.1v0c-3.8,0 -6.8,-3 -6.8,-6.8c0,-3.8 3,-6.8 6.8,-6.8l20.4,1.1c3.4,-15.9 13.6,-67 15.9,-79.5c-9,1.2 -20.4,2.3 -20.4,2.3c-3.7,0.5 -7.1,-1.9 -7.8,-5.6c-0.7,-3.8 1.7,-7.4 5.5,-8.1l29.5,-3.4c2.1,0.1 4.1,0.9 5.7,2.3c1.2,0 2.3,2.3 2.3,3.4l26.1,62.5l9.1,21.6c6.8,-3.4 10.2,-4.6 12.5,-5.7" fill="#ffffff" stroke="none" stroke-width="1" stroke-linecap="butt"/><path d="M223.17566,177.19368l8.01614,-40.993l14.83599,37.59089z" data-paper-data="{&quot;noHover&quot;:false,&quot;origItem&quot;:[&quot;Path&quot;,{&quot;applyMatrix&quot;:true,&quot;segments&quot;:[[492,347.5],[462.4,272.5],[446.4,354.3]],&quot;closed&quot;:true,&quot;fillColor&quot;:[0,0,0,1]}]}" fill="#ffd900" stroke="none" stroke-width="0.5" stroke-linecap="butt"/><path d="M365.1,119.25c2.3,0 4.5,1.1 4.6,3.7c2.3,2.3 2.3,3.4 2.3,5.7c-1.1,9.1 -1.1,25 -1.1,25c0,2.3 -1.1,5.7 -3.4,6.8c-3.4,2.2 -6.8,1.1 -9.1,-2.3c0,-1.1 -1.1,-3.4 -1.1,-10.2v-13.6c-6.8,0 -17,1.1 -28.4,1.1v89.7h13.6c3.8,0 6.8,3 6.8,6.8c0,3.7 -3,6.8 -6.8,6.8l-42,1.1c-3.6,-0.2 -6.5,-3 -6.6,-6.6c-0.1,-3.8 2.8,-7 6.6,-7.1h14.8v-89.7h-29.5c2.2,9 4.5,27.2 4.5,27.2c0,3.4 -2.3,6.8 -5.7,6.8c-3.5,1.1 -8,-2.3 -8,-5.7l-5.7,-34.1c-0.9,-2 -0.4,-4.2 1.1,-5.7c2.3,-1.2 3.4,-2.3 5.7,-2.3l44.3,-1.1c22.7,-1.2 43.1,-2.3 43.1,-2.3M75.6,203.25c3.4,0 6.8,3.5 6.6,5.6v11.3c-1.1,2.3 -2.2,10.3 -4.5,14.8c-2.3,3.5 -3.4,5.7 -5.7,8c-2.8,3 -6.3,5.3 -10.2,6.8c-4.5,2.3 -9.1,2.3 -13.6,2.3h-3.4c-26.1,0 -34.1,-20.5 -35.2,-30.7v-31.8c1.2,-17 6.8,-27.2 14.8,-32.9c11.4,-5.7 23.9,-1.2 28.4,1.1c3.4,1.2 6.5,3.2 9.1,5.7v-12.5c0,-0.2 0,-0.3 0,-0.5c0.2,-3.8 3.3,-6.8 7.1,-6.6c3.8,0.2 6.7,3.3 6.6,7.1v30.7c0,3.4 -1.2,5.7 -4.6,6.8c-3.4,0 -6.8,-1.1 -7.9,-3.4c0,0 -6.8,-10.2 -15.9,-13.6c-8,-2.2 -12.5,-3.4 -15.9,-1.1c-4.5,3.4 -6.8,11.3 -7.9,22.7v29.5c0,3.4 2.2,17 20.4,17h4.6c4.5,0 5.6,0 7.9,-1.1c2.3,-1.1 4.6,-2.3 5.7,-3.4c2.2,-2.3 3.4,-3.4 4.5,-5.7c1.3,-2.9 2.1,-6 2.3,-9.1v-10.2c0.2,-3.6 3.1,-6.6 6.8,-6.8" fill="#ffffff" stroke="none" stroke-width="1" stroke-linecap="butt"/><path d="M571.862,294.884v4.84c0,2.87 -0.5,6.95 -1.57,12.84c-0.44,2.74 -1.28,5.56 -2.49,8.39c-0.02,0.04 -0.04,0.07 -0.05,0.11c-2.15,4.85 -5.69,9.08 -10.53,12.57c-5.16,3.71 -10.5,5.59 -15.89,5.59c-2.18,0 -4.26,-0.34 -6.21,-1c-6.91,-2.23 -12.37,-6.47 -16.22,-12.6c-0.83,-1.35 -1.65,-3.02 -2.67,-5.46c-0.02,-0.06 -0.04,-0.11 -0.07,-0.17c-1.26,-3.16 -1.93,-5.69 -2.11,-7.97c-0.03,-0.39 -0.14,-1.33 -0.5,-3.17c-0.13,-0.69 -0.2,-1.39 -0.2,-2.09v-4.28c-0.44,-1.69 -0.48,-3.5 -0.05,-5.29c0.16,-0.69 0.39,-1.36 0.67,-1.98c0,-1.22 0.21,-2.44 0.61,-3.6c0.11,-0.5 0.26,-0.99 0.44,-1.48c0.01,-0.01 0.19,-0.52 0.44,-1.93c0.3,-1.73 0.86,-3.96 1.7,-6.77c0.01,-0.03 0.02,-0.07 0.03,-0.1c1.63,-5.24 4.92,-10.21 10.06,-15.19c0.04,-0.04 0.07,-0.07 0.11,-0.1c2.6,-2.46 5.6,-4.02 8.92,-4.66c0.6,-0.11 1.21,-0.17 1.83,-0.19c0.38,-0.01 1.39,-0.07 3.04,-0.16c0.06,0 0.12,-0.01 0.18,-0.01c4.87,-0.2 9.48,0.84 13.75,3.07c4.93,2.52 8.83,6.31 11.6,11.27c1.31,2.35 2.43,5.2 3.43,8.74c1.17,4.01 1.75,7.54 1.75,10.78z" fill="#ffd900" stroke="none" stroke-width="1" stroke-linecap="butt"/><path d="M560.85901,299.725c0,2.17 -0.471,5.836 -1.408,10.995c-0.293,1.877 -0.879,3.842 -1.76,5.894c-1.35,3.05 -3.65,5.748 -6.904,8.093c-3.255,2.345 -6.407,3.518 -9.456,3.518c-0.997,0 -1.906,-0.146 -2.727,-0.439c-4.457,-1.407 -7.916,-4.075 -10.379,-8.005c-0.471,-0.761 -1.086,-2.052 -1.848,-3.87c-0.821,-2.052 -1.275,-3.635 -1.363,-4.75c-0.088,-1.113 -0.308,-2.579 -0.66,-4.397v-6.51c0.234,-0.116 0.117,-0.292 -0.352,-0.527h0.528c0,-0.293 0.116,-0.85 0.352,-1.671c0.233,-0.821 0.352,-1.437 0.352,-1.848c0,-0.352 -0.088,-0.674 -0.264,-0.968c0.233,0 0.439,-0.088 0.615,-0.264c-0.059,-0.117 -0.206,-0.176 -0.439,-0.176c0.058,-0.058 0.161,-0.146 0.308,-0.264c0.146,-0.117 0.249,-0.205 0.309,-0.264c-0.06,-0.059 -0.132,-0.103 -0.221,-0.133c-0.088,-0.028 -0.162,-0.072 -0.22,-0.132c0.353,-0.938 0.674,-2.228 0.968,-3.87c0.233,-1.348 0.704,-3.195 1.407,-5.541c1.056,-3.4 3.46,-6.919 7.213,-10.556c1.056,-0.996 2.199,-1.612 3.431,-1.847c0.176,0 1.319,-0.059 3.431,-0.177c2.932,-0.116 5.687,0.499 8.268,1.848c2.992,1.525 5.336,3.812 7.037,6.861c0.881,1.583 1.701,3.724 2.463,6.421c0.881,2.99 1.32,5.571 1.32,7.74v4.839zM555.054,289.962c-0.35,-0.82 -0.76,-1.876 -1.227,-3.167c-0.586,-2.639 -2.325,-5.071 -5.217,-7.301c-2.893,-2.228 -5.566,-3.224 -8.021,-2.99c-1.11,0.118 -2.981,1.966 -5.612,5.542c-1.286,1.701 -2.571,5.102 -3.856,10.203c-1.169,4.75 -1.725,8.415 -1.665,10.995c0.116,3.284 0.292,5.571 0.526,6.86c0.408,2.405 1.285,4.604 2.629,6.598c1.286,1.759 2.28,2.902 2.981,3.431c2.629,1.877 5.112,2.814 7.451,2.814c0.525,0 1.022,-0.058 1.49,-0.176c1.11,-0.176 2.424,-0.908 3.944,-2.199c1.286,-1.173 2.25,-2.257 2.894,-3.255c0.876,-1.465 1.695,-3.664 2.455,-6.597c1.168,-4.28 1.754,-8.825 1.754,-13.634c0.002,-2.579 -0.174,-4.954 -0.526,-7.124z" fill="#ffffff" stroke="none" stroke-width="1" stroke-linecap="butt"/><path d="M460.94301,286.61888c-0.03,0.29 -0.07,0.57 -0.12,0.85c-1.33,6.97 -4.99,12.53 -10.59,16.1c-3.37,2.16 -7.82,3.69 -13.56,4.65c-0.02,0.01 -0.04,0.01 -0.06,0.01c0.03,0.98 0.06,2.07 0.08,3.26c5.61,0.21 8.83,3.11 10.36,5.01c1.39,1.71 2.97,4.56 2.97,8.67c0,6.59 -4.26,11.97 -10.6,13.38c-2.47,0.55 -5.16,0.68 -8,0.37h-0.06c-0.17,0 -0.5,0.01 -1.06,0.07c-2.94,0.33 -3.85,0.41 -4.43,0.43c-0.51,0.03 -1.83,0.15 -4.83,0.59c-3.45,0.51 -5.77,0.73 -7.53,0.73c-4.46,0 -8.16,-1.19 -11.01,-3.55c-4.81,-3.88 -6.08,-10.27 -3.15,-15.56c2.04,-3.9 4.93,-5.71 7.16,-6.55c0.96,-0.38 2,-0.68 3.1,-0.91v-0.01c-0.29,-1.66 -0.39,-3.63 -0.33,-6.25v-4.17c-0.19,-0.79 -0.35,-1.71 -0.35,-2.8v-5.5c-0.02,-0.26 -0.04,-0.53 -0.05,-0.8c-0.04,-0.72 -0.09,-1.81 -0.15,-3.25c-0.02,-0.68 -0.05,-1.44 -0.09,-2.27c-3.44,-0.62 -6.51,-2.33 -8.84,-4.97c-1.41,-1.6 -2.33,-3.59 -2.63,-5.71c-0.14,-0.92 -0.2,-1.83 -0.2,-2.7c0,-3.77 1.62,-7.29 4.45,-9.66c0.12,-0.1 0.23,-0.19 0.35,-0.28c3.02,-2.33 6.83,-3.67 11.64,-4.1c0.12,-0.01 0.24,-0.02 0.35,-0.03l6.26,-0.35c0.2,-0.01 0.41,-0.01 0.61,-0.01h6.32c1.95,-0.07 3.5,-0.06 4.85,0.01c0.11,0.01 0.23,0.02 0.34,0.03c3.34,0.29 7.36,1.05 12.29,2.33c0.25,0.07 0.51,0.15 0.76,0.23c0.88,0.3 1.54,0.61 4.11,1.94c2.05,1.04 4.02,2.49 5.85,4.31c3.02,2.91 4.82,6.16 5.38,9.67c0,0.05 0.01,0.1 0.02,0.16c0.47,3.29 0.57,5.03 0.39,6.63z" fill="#ffd900" stroke="none" stroke-width="1" stroke-linecap="butt"/><path d="M450.042,286.149c-0.76,3.988 -2.66,6.949 -5.697,8.884c-2.104,1.35 -5.26,2.375 -9.466,3.079c-5.144,0.88 -8.298,1.525 -9.466,1.936v4.573c0.175,1.878 0.292,5.484 0.35,10.819c0.058,3.577 0.379,6.48 0.962,8.708c0.058,0.118 0.495,0.118 1.311,0c1.106,-0.058 2.796,-0.205 5.069,-0.439c0.466,-0.117 1.165,-0.264 2.098,-0.44c1.631,-0.176 2.737,0.118 3.32,0.88c0.349,0.411 0.524,0.998 0.524,1.76c0,1.467 -0.659,2.346 -1.979,2.639c-1.319,0.294 -2.802,0.352 -4.442,0.176c-0.938,-0.116 -2.142,-0.088 -3.606,0.088c-2.111,0.235 -3.284,0.352 -3.519,0.352c-1.231,0.06 -3.24,0.295 -6.025,0.704c-2.785,0.409 -4.765,0.616 -5.937,0.616c-1.878,0 -3.227,-0.359 -4.047,-1.074c-0.703,-0.537 -0.851,-1.134 -0.439,-1.79c0.409,-0.836 0.88,-1.343 1.407,-1.521c1.173,-0.478 2.814,-0.717 4.926,-0.717c1.465,0 3.4,-0.174 5.806,-0.526c-0.118,-0.995 -0.147,-2.457 -0.088,-4.39c0,-0.467 -0.06,-1.171 -0.176,-2.108c0,-0.058 -0.044,-0.203 -0.133,-0.437c-0.088,-0.234 -0.132,-0.41 -0.132,-0.528c0,-2.166 -0.03,-3.482 -0.088,-3.951c-0.234,-0.819 -0.322,-2.369 -0.264,-4.653c0,-3.219 0,-5.003 0,-5.355c0,-0.352 -0.059,-0.717 -0.176,-1.098c-0.118,-0.379 -0.176,-0.6 -0.176,-0.658v-5.883c0,1.055 -0.235,-4.564 -0.704,-16.856c0,-0.409 -0.176,-0.731 -0.527,-0.966c-0.763,0.059 -1.95,0.264 -3.562,0.615c-1.613,0.352 -2.801,0.527 -3.562,0.527c-1.467,0 -2.639,-0.497 -3.519,-1.495c-0.059,-0.409 -0.088,-0.791 -0.088,-1.144c0,-0.527 0.176,-0.937 0.527,-1.231c1.29,-0.996 3.255,-1.612 5.894,-1.847c2.052,-0.117 4.135,-0.233 6.245,-0.352c0.293,0 0.704,0 1.231,0c0.528,0 0.909,0 1.144,0c0.469,0 1.848,0 4.135,0c1.641,-0.059 2.99,-0.059 4.046,0c2.696,0.234 6.187,0.909 10.468,2.022c0.176,0.06 1.055,0.499 2.639,1.319c1.055,0.528 2.111,1.319 3.166,2.375c1.289,1.231 2.023,2.405 2.199,3.519c0.293,2.051 0.41,3.341 0.351,3.868zM444.76501,284.955c-1.057,-5.008 -7.271,-7.542 -18.647,-7.602c-0.294,0 -0.734,0.178 -1.319,0.53c0,0.59 0.088,2.77 0.264,6.541c0.058,2.476 0.205,6.188 0.438,11.137c0.115,0 0.933,-0.088 2.452,-0.266c0.466,0 1.107,-0.088 1.925,-0.265c2.803,-0.471 5.634,-0.972 8.495,-1.503c3.443,-0.824 5.486,-2.68 6.129,-5.568c0.351,-1.237 0.439,-2.237 0.263,-3.004z" fill="#ffffff" stroke="none" stroke-width="1" stroke-linecap="butt"/><g fill="#ffd900" stroke="none" stroke-width="1" stroke-linecap="butt"><path d="M513.881,318.091c0.233,0.88 -0.161,2.215 -1.186,4.003c-1.023,1.789 -2.105,3.064 -3.246,3.826c-1.141,0.762 -2.911,1.261 -5.308,1.495c-1.931,0.176 -3.73,-0.675 -5.396,-2.551c-1.668,-1.876 -2.617,-3.958 -2.851,-6.245c-0.645,-6.45 -1.464,-11.083 -2.458,-13.898c-0.118,-0.703 -0.439,-1.743 -0.966,-3.122c-0.526,-1.377 -1.725,-2.507 -3.597,-3.387c-1.405,-0.527 -2.837,-1.084 -4.299,-1.671c-0.234,-0.058 -0.526,-0.058 -0.877,0c-0.819,0.234 -2.517,0.703 -5.09,1.407v1.671v6.861c0,0.118 0.044,0.675 0.132,1.671c0.088,0.998 0.132,1.702 0.132,2.111c0.117,0.998 0.265,3.637 0.44,7.916c0.409,0.177 0.849,0.177 1.319,0c1.583,-0.645 2.99,-0.791 4.222,-0.439c0.88,0.294 1.319,0.998 1.319,2.111c0,1.643 -0.865,2.625 -2.595,2.946c-1.73,0.323 -4.266,0.778 -7.608,1.364c-2.698,0.527 -4.692,0.791 -5.981,0.791c-1.994,0 -3.373,-0.469 -4.134,-1.407c-0.176,-1.936 0.82,-3.107 2.99,-3.519c1.76,-0.176 3.519,-0.381 5.277,-0.616c0.234,-0.292 0.353,-0.615 0.353,-0.967c-0.06,-1.349 -0.382,-6.187 -0.968,-14.514c-0.176,-1.993 -0.235,-3.519 -0.176,-4.574c-1.056,-0.058 -1.76,-0.146 -2.111,-0.264c-0.88,-0.293 -1.438,-0.85 -1.671,-1.671v-0.265c0.116,-0.058 0.204,-0.352 0.264,-0.879c0.82,-1.29 1.876,-1.788 3.167,-1.496c0.116,-0.352 0.088,-1.289 -0.089,-2.814c-0.527,-5.57 -0.851,-10.027 -0.967,-13.37c-0.235,-0.233 -0.734,-0.293 -1.496,-0.176c-1.173,0.235 -1.789,0.352 -1.847,0.352c-3.167,0 -4.692,-0.761 -4.574,-2.287c0.117,-1.407 1.319,-2.256 3.606,-2.551c2.052,-0.409 6.362,-1.055 12.931,-1.935c-0.294,0.059 1.788,0.146 6.245,0.264c5.159,0.411 8.766,1.262 10.819,2.551c2.228,1.467 3.723,3.401 4.485,5.806c0.233,0.763 0.293,1.906 0.176,3.431c-0.059,1.525 -0.294,2.609 -0.703,3.254c-1.35,2.463 -4.076,4.662 -8.181,6.598c0,0.176 0.029,0.294 0.088,0.352c1.466,1.056 2.463,1.994 2.991,2.814c1.523,2.463 2.551,6.041 3.078,10.731c0.762,6.393 1.377,10.409 1.847,12.051c0.059,0.352 0.469,0.909 1.231,1.671c0.762,0.764 1.378,1.174 1.848,1.231c1.816,0.118 2.932,-0.703 3.343,-2.463c-0.06,-0.645 0.204,-1.524 0.791,-2.639c0.821,-0.762 1.817,-1.144 2.991,-1.144c1.175,0.002 1.937,0.531 2.29,1.585zM496.28901,287.217c0.527,-0.527 0.791,-1.348 0.791,-2.463c0,-2.99 -1.056,-5.13 -3.166,-6.421c-2.111,-1.289 -6.686,-1.876 -13.723,-1.759c-0.527,0 -1.319,0.234 -2.375,0.703c0.177,0.88 0.177,1.613 0,2.199c-0.059,0.88 -0.059,1.701 0,2.463c0.029,1.583 0.089,3.549 0.177,5.894c0.292,3.46 0.439,5.396 0.439,5.805c0.996,-0.058 2.463,-0.352 4.398,-0.879c0.292,-0.293 0.703,-0.616 1.231,-0.968c0.409,-0.117 1.465,-0.176 3.166,-0.176c3.226,0.001 6.247,-1.464 9.062,-4.398z"/><path d="M503.64801,338.438c-3.449,0 -8.526,-1.088 -13.128,-6.269c-0.076,-0.086 -0.151,-0.172 -0.227,-0.259c-1.404,0.801 -2.985,1.382 -4.707,1.702c-1.729,0.322 -4.271,0.779 -7.614,1.365c-3.42,0.665 -5.96,0.975 -7.984,0.975c-6.808,0 -10.652,-2.98 -12.679,-5.48c-1.374,-1.694 -2.213,-3.76 -2.41,-5.932c-0.563,-6.204 2.626,-11.558 8.035,-14.086c-0.079,-1.149 -0.169,-2.451 -0.272,-3.923c-1.735,-1.627 -3.014,-3.71 -3.694,-6.104c-0.278,-0.978 -0.419,-1.99 -0.419,-3.007v-0.265c0,-1.246 0.211,-2.461 0.605,-3.601c0.287,-1.123 0.75,-2.197 1.376,-3.181c0.325,-0.511 0.673,-0.995 1.042,-1.453c-0.008,-0.088 -0.016,-0.177 -0.022,-0.265c-1.784,-0.669 -3.623,-1.739 -5.209,-3.452c-2.405,-2.6 -3.578,-5.997 -3.301,-9.568c0.661,-7.95 7.168,-11.688 12.729,-12.55c2.388,-0.458 6.752,-1.11 13.314,-1.989c1.029,-0.137 2.045,-0.129 3.026,0.012c0.621,0.028 1.998,0.08 4.969,0.158c0.195,0.005 0.391,0.016 0.585,0.031c7.113,0.566 12.132,1.9 15.793,4.199c0.068,0.042 0.135,0.085 0.202,0.129c4.316,2.843 7.401,6.877 8.921,11.667c0.011,0.036 0.022,0.071 0.033,0.107c0.64,2.091 0.844,4.411 0.64,7.289c-0.15,3.249 -0.861,5.917 -2.17,8.135c-0.759,1.344 -1.673,2.609 -2.747,3.801c0.916,2.609 1.583,5.57 2.017,8.929c0.41,-0.031 0.824,-0.047 1.242,-0.047c5.88,0 10.873,3.57 12.72,9.096c0.073,0.221 0.14,0.442 0.199,0.667c1.51,5.689 -1.337,10.658 -2.272,12.291c-1.895,3.312 -4.082,5.77 -6.682,7.506c-2.695,1.8 -6.08,2.878 -10.346,3.296c-0.569,0.054 -1.07,0.076 -1.565,0.076z"/></g><path d="M513.881,318.091c0.233,0.88 -0.161,2.215 -1.186,4.003c-1.023,1.789 -2.105,3.064 -3.246,3.826c-1.141,0.762 -2.911,1.261 -5.308,1.495c-1.931,0.176 -3.73,-0.675 -5.396,-2.551c-1.668,-1.876 -2.617,-3.958 -2.851,-6.245c-0.645,-6.45 -1.464,-11.083 -2.458,-13.898c-0.118,-0.703 -0.439,-1.743 -0.966,-3.122c-0.526,-1.377 -1.725,-2.507 -3.597,-3.387c-1.405,-0.527 -2.837,-1.084 -4.299,-1.671c-0.234,-0.058 -0.526,-0.058 -0.877,0c-0.819,0.234 -2.517,0.703 -5.09,1.407v1.671v6.861c0,0.118 0.044,0.675 0.132,1.671c0.088,0.998 0.132,1.702 0.132,2.111c0.117,0.998 0.265,3.637 0.44,7.916c0.409,0.177 0.849,0.177 1.319,0c1.583,-0.645 2.99,-0.791 4.222,-0.439c0.88,0.294 1.319,0.998 1.319,2.111c0,1.643 -0.865,2.625 -2.595,2.946c-1.73,0.323 -4.266,0.778 -7.608,1.364c-2.698,0.527 -4.692,0.791 -5.981,0.791c-1.994,0 -3.373,-0.469 -4.134,-1.407c-0.176,-1.936 0.82,-3.107 2.99,-3.519c1.76,-0.176 3.519,-0.381 5.277,-0.616c0.234,-0.292 0.353,-0.615 0.353,-0.967c-0.06,-1.349 -0.382,-6.187 -0.968,-14.514c-0.176,-1.993 -0.235,-3.519 -0.176,-4.574c-1.056,-0.058 -1.76,-0.146 -2.111,-0.264c-0.88,-0.293 -1.438,-0.85 -1.671,-1.671v-0.265c0.116,-0.058 0.204,-0.352 0.264,-0.879c0.82,-1.29 1.876,-1.788 3.167,-1.496c0.116,-0.352 0.088,-1.289 -0.089,-2.814c-0.527,-5.57 -0.851,-10.027 -0.967,-13.37c-0.235,-0.233 -0.734,-0.293 -1.496,-0.176c-1.173,0.235 -1.789,0.352 -1.847,0.352c-3.167,0 -4.692,-0.761 -4.574,-2.287c0.117,-1.407 1.319,-2.256 3.606,-2.551c2.052,-0.409 6.362,-1.055 12.931,-1.935c-0.294,0.059 1.788,0.146 6.245,0.264c5.159,0.411 8.766,1.262 10.819,2.551c2.228,1.467 3.723,3.401 4.485,5.806c0.233,0.763 0.293,1.906 0.176,3.431c-0.059,1.525 -0.294,2.609 -0.703,3.254c-1.35,2.463 -4.076,4.662 -8.181,6.598c0,0.176 0.029,0.294 0.088,0.352c1.466,1.056 2.463,1.994 2.991,2.814c1.523,2.463 2.551,6.041 3.078,10.731c0.762,6.393 1.377,10.409 1.847,12.051c0.059,0.352 0.469,0.909 1.231,1.671c0.762,0.764 1.378,1.174 1.848,1.231c1.816,0.118 2.932,-0.703 3.343,-2.463c-0.06,-0.645 0.204,-1.524 0.791,-2.639c0.821,-0.762 1.817,-1.144 2.991,-1.144c1.175,0.002 1.937,0.531 2.29,1.585zM496.28901,287.217c0.527,-0.527 0.791,-1.348 0.791,-2.463c0,-2.99 -1.056,-5.13 -3.166,-6.421c-2.111,-1.289 -6.686,-1.876 -13.723,-1.759c-0.527,0 -1.319,0.234 -2.375,0.703c0.177,0.88 0.177,1.613 0,2.199c-0.059,0.88 -0.059,1.701 0,2.463c0.029,1.583 0.089,3.549 0.177,5.894c0.292,3.46 0.439,5.396 0.439,5.805c0.996,-0.058 2.463,-0.352 4.398,-0.879c0.292,-0.293 0.703,-0.616 1.231,-0.968c0.409,-0.117 1.465,-0.176 3.166,-0.176c3.226,0.001 6.247,-1.464 9.062,-4.398z" fill="#ffffff" stroke="none" stroke-width="1" stroke-linecap="butt"/><path d="M435.40001,320.7v-19.5c0,0 20.91547,-14.5 25.5,-14.5c3.88109,0 0.25,14.5 0.25,14.5c0,0 2.5,5.09206 2.5,8c0,3.4865 -2.5,11.5 -2.5,11.5c0,0 -14.17051,17 -17.5,17c-2.8764,0 -1.04816,-8.50204 -2.50886,-13.42317c-0.94796,-3.19368 -5.74114,-3.57683 -5.74114,-3.57683z" fill="#ffd900" stroke="none" stroke-width="0" stroke-linecap="butt"/><path d="M504.03334,298.6v-34.66667h29.33334c0,0 -11.33334,10.39945 -11.33334,15.66667c0,6.15078 -6,23.33333 -6,23.33333c0,0 -1.80024,3.96103 -3.75836,3.25393c-2.03863,-0.73618 -8.24164,-7.58726 -8.24164,-7.58726z" fill="#ffd900" stroke="none" stroke-width="0" stroke-linecap="butt"/><path d="M-81.89999,164.3l164,-3" fill="none" stroke="#ff0000" stroke-width="11.5" stroke-linecap="round"/><path d="M82.10001,220.30001l-164,3" fill="none" stroke="#ff0000" stroke-width="11.5" stroke-linecap="round"/><path d="M-22.119,138.091c0.233,0.88 -0.161,2.215 -1.186,4.003c-1.023,1.789 -2.105,3.064 -3.246,3.826c-1.141,0.762 -2.911,1.261 -5.308,1.495c-1.931,0.176 -3.73,-0.675 -5.396,-2.551c-1.668,-1.876 -2.617,-3.958 -2.851,-6.245c-0.645,-6.45 -1.464,-11.083 -2.458,-13.898c-0.118,-0.703 -0.439,-1.743 -0.966,-3.122c-0.526,-1.377 -1.725,-2.507 -3.597,-3.387c-1.405,-0.527 -2.837,-1.084 -4.299,-1.671c-0.234,-0.058 -0.526,-0.058 -0.877,0c-0.819,0.234 -2.517,0.703 -5.09,1.407v1.671v6.861c0,0.118 0.044,0.675 0.132,1.671c0.088,0.998 0.132,1.702 0.132,2.111c0.117,0.998 0.265,3.637 0.44,7.916c0.409,0.177 0.849,0.177 1.319,0c1.583,-0.645 2.99,-0.791 4.222,-0.439c0.88,0.294 1.319,0.998 1.319,2.111c0,1.643 -0.865,2.625 -2.595,2.946c-1.73,0.323 -4.266,0.778 -7.608,1.364c-2.698,0.527 -4.692,0.791 -5.981,0.791c-1.994,0 -3.373,-0.469 -4.134,-1.407c-0.176,-1.936 0.82,-3.107 2.99,-3.519c1.76,-0.176 3.519,-0.381 5.277,-0.616c0.234,-0.292 0.353,-0.615 0.353,-0.967c-0.06,-1.349 -0.382,-6.187 -0.968,-14.514c-0.176,-1.993 -0.235,-3.519 -0.176,-4.574c-1.056,-0.058 -1.76,-0.146 -2.111,-0.264c-0.88,-0.293 -1.438,-0.85 -1.671,-1.671v-0.265c0.116,-0.058 0.204,-0.352 0.264,-0.879c0.82,-1.29 1.876,-1.788 3.167,-1.496c0.116,-0.352 0.088,-1.289 -0.089,-2.814c-0.527,-5.57 -0.851,-10.027 -0.967,-13.37c-0.235,-0.233 -0.734,-0.293 -1.496,-0.176c-1.173,0.235 -1.789,0.352 -1.847,0.352c-3.167,0 -4.692,-0.761 -4.574,-2.287c0.117,-1.407 1.319,-2.256 3.606,-2.551c2.052,-0.409 6.362,-1.055 12.931,-1.935c-0.294,0.059 1.788,0.146 6.245,0.264c5.159,0.411 8.766,1.262 10.819,2.551c2.228,1.467 3.723,3.401 4.485,5.806c0.233,0.763 0.293,1.906 0.176,3.431c-0.059,1.525 -0.294,2.609 -0.703,3.254c-1.35,2.463 -4.076,4.662 -8.181,6.598c0,0.176 0.029,0.294 0.088,0.352c1.466,1.056 2.463,1.994 2.991,2.814c1.523,2.463 2.551,6.041 3.078,10.731c0.762,6.393 1.377,10.409 1.847,12.051c0.059,0.352 0.469,0.909 1.231,1.671c0.762,0.764 1.378,1.174 1.848,1.231c1.816,0.118 2.932,-0.703 3.343,-2.463c-0.06,-0.645 0.204,-1.524 0.791,-2.639c0.821,-0.762 1.817,-1.144 2.991,-1.144c1.175,0.002 1.937,0.531 2.29,1.585zM-39.711,107.217c0.527,-0.527 0.791,-1.348 0.791,-2.463c0,-2.99 -1.056,-5.13 -3.166,-6.421c-2.111,-1.289 -6.686,-1.876 -13.723,-1.759c-0.527,0 -1.319,0.234 -2.375,0.703c0.177,0.88 0.177,1.613 0,2.199c-0.059,0.88 -0.059,1.701 0,2.463c0.029,1.583 0.089,3.549 0.177,5.894c0.292,3.46 0.439,5.396 0.439,5.805c0.996,-0.058 2.463,-0.352 4.398,-0.879c0.292,-0.293 0.703,-0.616 1.231,-0.968c0.409,-0.117 1.465,-0.176 3.166,-0.176c3.226,0.001 6.247,-1.464 9.062,-4.398z" fill="#ff0000" stroke="#ffc500" stroke-width="2.5" stroke-linecap="butt"/><path d="M15.002,99.849c-0.703,0.998 -1.789,1.496 -3.254,1.496c-0.763,0 -1.438,-0.146 -2.023,-0.44c-0.059,-1.583 -0.206,-3.928 -0.439,-7.037c-4.985,0.939 -12.931,2.317 -23.837,4.135c-0.528,0.059 -0.968,0.206 -1.32,0.439c0.293,5.396 0.44,10.674 0.44,15.833c0.594,0.118 2.467,-0.146 5.618,-0.792c1.546,-0.233 3.926,-0.791 7.136,-1.671c0.058,-0.938 -0.059,-2.507 -0.352,-4.706c-0.294,-2.199 -0.411,-3.826 -0.352,-4.882c0,-1.113 0.761,-1.671 2.287,-1.671c1.759,0 2.696,0.733 2.814,2.199c0.233,2.229 0.585,5.571 1.056,10.027v13.634c0.176,0.235 0.292,0.411 0.352,0.527c-0.176,0.704 -0.675,1.306 -1.495,1.804c-0.822,0.499 -1.643,0.747 -2.463,0.747c-1.056,0 -1.76,-0.468 -2.111,-1.407c0.117,-0.585 0.205,-1.495 0.264,-2.727v-8.092c-3.721,0.118 -7.913,0.879 -12.578,2.286c0,1.056 -0.03,3.754 -0.088,8.093c-0.06,3.577 -0.06,6.012 0,7.301c0,0.294 0.233,0.822 0.704,1.583c1.231,0.06 3.136,0.176 5.717,0.353c2.991,0.294 5.981,0.586 8.972,0.879c3.576,0.411 6.567,0.559 8.973,0.44c0.058,-0.762 0.204,-1.965 0.439,-3.606v-5.19c-0.352,-0.585 -0.528,-1.144 -0.528,-1.671c0,-0.88 0.366,-1.627 1.1,-2.243c0.732,-0.615 1.54,-0.924 2.419,-0.924c0.704,0 1.261,0.207 1.672,0.616c0.233,0.235 0.292,0.998 0.176,2.287c-0.06,0.294 -0.03,0.807 0.088,1.539c0.117,0.734 0.176,1.218 0.176,1.451c0,0.353 -0.059,0.924 -0.176,1.716c-0.118,0.791 -0.176,1.218 -0.176,1.275v5.277c0,0.06 0.116,0.352 0.352,0.88c0.117,0.527 0.117,0.879 0,1.056c-0.823,1.643 -2.058,2.463 -3.701,2.463c-0.412,0 -0.911,-0.058 -1.499,-0.176c-0.589,-0.117 -0.94,-0.176 -1.058,-0.176h-5.376c-1.41,0 -3.951,-0.205 -7.624,-0.616c-3.672,-0.409 -6.802,-0.615 -9.386,-0.615h-5.552c-0.471,0 -1.41,0.074 -2.82,0.22c-1.41,0.146 -2.498,0.22 -3.262,0.22c-1.586,0 -2.88,-0.264 -3.877,-0.792c-0.294,-0.176 -0.441,-0.615 -0.441,-1.319c0,-0.645 0.175,-1.144 0.523,-1.495c0.755,-0.762 1.801,-1.201 3.138,-1.319c0.871,0 1.771,0 2.702,0c0.638,0.118 1.509,0.059 2.614,-0.176c0.349,-0.177 0.553,-0.586 0.61,-1.231c0.058,-0.41 0.058,-1.025 0,-1.848c-0.058,-0.938 -0.087,-1.465 -0.087,-1.583c0,-6.099 -0.028,-9.588 -0.087,-10.468c-1.037,-0.116 -2.479,-0.497 -4.323,-1.144c-0.813,-0.645 -1.016,-1.524 -0.604,-2.639c0.352,-0.938 1.144,-1.612 2.375,-2.023c0.879,-0.292 1.759,-0.557 2.639,-0.791c0.176,-0.645 0.204,-1.437 0.088,-2.375c-0.118,-0.82 -0.206,-1.612 -0.264,-2.375c-0.118,-2.521 -0.323,-6.391 -0.616,-11.611c-0.235,0 -1.026,0.074 -2.375,0.221c-1.35,0.146 -2.405,0.22 -3.166,0.22c-2.698,0 -4.047,-0.807 -4.047,-2.422c0,-0.229 0.029,-0.489 0.088,-0.778c-0.059,-0.115 -0.116,-0.173 -0.176,-0.173c1.289,-1.036 2.756,-1.613 4.398,-1.729c1.056,0 2.11,0 3.166,0c7.33,-0.117 19.205,-1.817 35.624,-5.102c0.176,-0.059 0.469,-0.029 0.88,0.088c0.409,0.118 0.645,0.206 0.703,0.264c0.469,0.646 0.792,1.378 0.968,2.199c-0.177,2.581 -0.089,5.335 0.262,8.267z" fill="#ff0000" stroke="#ffc500" stroke-width="2.5" stroke-linecap="butt"/><path d="M66.41234,121.85498c-0.352,2.757 -1.643,5.366 -3.871,7.829c-1.818,1.935 -4.516,3.782 -8.092,5.541c-6.1,2.991 -11.582,4.546 -16.448,4.662c-0.938,0.06 -2.507,0.132 -4.706,0.22c-2.199,0.088 -3.357,0.132 -3.475,0.132h-5.013c-0.88,0.177 -1.643,0.045 -2.287,-0.396c-0.645,-0.439 -1.025,-1.069 -1.144,-1.891c0.822,-1.584 2.433,-2.258 4.838,-2.023c3.752,0.352 5.894,0.439 6.421,0.264c0,-1.289 -0.059,-3.02 -0.176,-5.189c-0.234,-2.991 -0.382,-4.808 -0.439,-5.454c-0.294,-4.926 -0.792,-13.75 -1.495,-26.476c-0.06,-0.88 -0.206,-1.524 -0.44,-1.936c-0.294,-0.176 -0.675,-0.176 -1.144,0c-0.586,0.176 -1.29,0.264 -2.11,0.264c-1.291,0 -2.479,-0.233 -3.562,-0.703c-1.085,-0.469 -1.627,-1.113 -1.627,-1.936c0,-0.293 0.088,-0.615 0.264,-0.968c0.646,-1.407 2.022,-2.11 4.134,-2.11c0.469,0 1.319,0.059 2.551,0.176c0.997,0.118 1.729,0.146 2.199,0.088c0.469,-0.058 2.727,0.088 6.772,0.439c3.108,0.294 5.659,0.646 7.653,1.056c7.329,1.643 13.427,6.363 18.296,14.162c0.82,1.35 1.699,3.489 2.639,6.421c0.526,1.701 0.614,4.309 0.262,7.828zM59.90334,125.54898c1.172,-1.935 1.76,-4.046 1.76,-6.333c0,-5.511 -3.021,-10.995 -9.06,-16.448c-0.763,-0.704 -2.435,-1.76 -5.014,-3.167c-3.461,-1.816 -7.419,-2.814 -11.875,-2.99c0.586,13.488 1.144,23.456 1.671,29.906c0.234,2.111 0.586,5.249 1.056,9.412c3.049,0.176 6.51,-0.513 10.38,-2.067c3.87,-1.553 7.153,-3.62 9.852,-6.201c0.056,-0.058 0.468,-0.762 1.23,-2.112z" fill="#ff0000" stroke="#ffc500" stroke-width="2.5" stroke-linecap="butt"/></g></g></svg>